<?xml version="1.0" encoding="UTF-8" standalone="no"?>
<!-- Created with Inkscape (http://www.inkscape.org/) -->

<svg
   width="185.04756mm"
   height="230.21008mm"
   viewBox="0 0 185.04756 230.21008"
   version="1.1"
   id="svg1"
   xmlns="http://www.w3.org/2000/svg"
   xmlns:svg="http://www.w3.org/2000/svg">
  <defs
     id="defs1" />
  <g
     id="layer1"
     transform="translate(-10.669424,59.071089)">
    <g
       id="g1"
       transform="matrix(3,0,0,3,-206.38639,-112.06787)">
      <path
         style="fill:none;stroke:#000000;stroke-width:1;stroke-linecap:square;stroke-linejoin:round;stroke-miterlimit:0;stroke-dasharray:none;stroke-opacity:1;paint-order:stroke markers fill"
         id="path4"
         d="M 133.52588,49.312842 A 30.33927,30.612972 0 0 1 102.7941,79.388922 30.33927,30.612972 0 0 1 72.853116,48.511427 30.33927,30.612972 0 0 1 103.32361,18.165891 30.33927,30.612972 0 0 1 133.5305,48.778572" />
      <path
         style="fill:none;stroke:#000000;stroke-width:1;stroke-linecap:square;stroke-linejoin:round;stroke-miterlimit:0;stroke-dasharray:none;stroke-opacity:1;paint-order:stroke markers fill"
         id="path4-4"
         d="M 129.16394,54.807626 A 25.98844,25.033722 0 0 1 102.83928,79.402305 25.98844,25.033722 0 0 1 77.192009,54.15227 25.98844,25.033722 0 0 1 103.29285,29.337244 25.98844,25.033722 0 0 1 129.1679,54.370728" />
      <path
         style="fill:none;stroke:#000000;stroke-width:1;stroke-linecap:square;stroke-linejoin:round;stroke-miterlimit:0;stroke-dasharray:none;stroke-opacity:1;paint-order:stroke markers fill"
         id="path4-7"
         d="M 122.97742,49.383246 A 19.801708,19.721062 0 0 1 102.91953,68.758438 19.801708,19.721062 0 0 1 83.377772,48.86697 19.801708,19.721062 0 0 1 103.26513,29.318192 a 19.801708,19.721062 0 0 1 19.7153,19.720874" />
      <ellipse
         style="fill:#000000;fill-opacity:1;stroke:none;stroke-width:0.183944;stroke-miterlimit:0;stroke-dasharray:none;stroke-opacity:1;paint-order:stroke markers fill"
         id="path5"
         cx="103.19055"
         cy="29.241154"
         rx="1.4951589"
         ry="1.4661529" />
      <ellipse
         style="fill:#000000;fill-opacity:1;stroke:none;stroke-width:0.260908;stroke-miterlimit:0;stroke-dasharray:none;stroke-opacity:1;paint-order:stroke markers fill"
         id="path5-1"
         cx="103.20589"
         cy="49.074612"
         rx="2.0728884"
         ry="2.1276114" />
      <ellipse
         style="fill:#000000;fill-opacity:1;stroke:none;stroke-width:0.129334;stroke-miterlimit:0;stroke-dasharray:none;stroke-opacity:1;paint-order:stroke markers fill"
         id="path5-2"
         cx="103.17043"
         cy="79.370766"
         rx="1.0513957"
         ry="1.0307627" />
      <g
         id="starlink"
         transform="matrix(0.20559856,0,0,0.20559856,70.295356,77.325529)">
        <g
           id="letters">
          <path
             id="letter-s"
             d="m 10.0029,71.7839 h 6.3063 c 0.2252,2.027 0.9009,3.3784 1.8018,4.0541 0.9009,0.9008 2.4774,1.1261 4.5044,1.1261 3.8288,0 5.6306,-1.5766 5.6306,-4.5045 0,-1.3513 -0.4504,-2.4774 -1.1261,-3.1531 -1.995905,-1.553778 -4.567208,-1.70507 -6.9819,-2.027 -6.3063,-1.1261 -9.4594,-4.2793 -9.4594,-9.6846 0,-3.1531 1.1261,-5.8558 3.1531,-7.6576 2.2522,-1.8018 4.9549,-2.9279 8.5585,-2.9279 3.3783,0 6.081,0.9009 8.108,2.7027 2.027,1.8018 3.1532,4.5045 3.3784,7.6576 h -6.3063 c 0,-1.8018 -0.6756,-2.9279 -1.5765,-3.6036 C 25.0929,53.0904 23.7415,52.64 22.165,52.64 c -1.8018,0 -2.9279,0.4504 -3.8288,1.1261 -0.9009,0.6757 -1.3513,1.8018 -1.3513,3.3783 0,1.1262 0.4504,2.2523 1.1261,2.9279 0.6756,0.6757 2.027,1.1262 3.6035,1.5766 l 3.6036,0.6757 c 6.081,1.1261 9.0089,4.2792 9.0089,9.9098 0,3.6035 -1.1261,6.3062 -3.3783,8.108 -2.2523,1.8018 -5.1802,2.7027 -9.0089,2.7027 -7.359467,0.296389 -11.311292,-4.27196 -11.9369,-11.2612 z"
             fill="#000000" />
          <path
             id="letter-t"
             d="M 65.1825,53.3157 V 82.5946 H 58.4258 V 53.3157 h -9.0089 v -5.8559 h 24.5493 v 5.8559 z"
             fill="#000000" />
          <path
             id="letter-a"
             d="m 93.1101,75.6127 -2.027,6.7567 H 84.1012 L 96.4885,47.4598 h 5.4055 l 12.387,34.9096 h -6.982 l -2.027,-6.7567 z M 99.1912,56.694 94.9119,70.2074 h 8.5581 z"
             fill="#000000" />
          <path
             id="letter-r"
             d="m 136.803,68.4056 v 14.189 h -6.531 V 47.6851 h 13.288 c 3.378,0 6.081,0.9008 8.108,2.7026 2.027,1.8018 3.153,4.5045 3.153,7.6576 0,2.2523 -0.45,4.2792 -1.576,5.8558 -1.126,1.5766 -2.703,2.7027 -4.505,3.6036 l 7.658,15.3152 h -7.658 l -6.531,-14.1891 h -5.406 z m 6.307,-5.6306 c 1.576,0 2.702,-0.4504 3.603,-1.3513 0.901,-0.9009 1.352,-2.027 1.352,-3.6036 0,-1.3513 -0.451,-2.4775 -1.352,-3.3784 -0.901,-0.9008 -2.027,-1.3513 -3.603,-1.3513 h -6.307 v 9.6846 z"
             fill="#000000" />
          <path
             id="letter-l"
             d="m 179.371,47.4598 v 29.279 h 15.315 v 5.8558 H 172.839 V 47.6851 h 6.532 z"
             fill="#000000" />
          <path
             id="letter-i"
             d="m 218.559,47.4598 v 35.1348 h -6.531 V 47.6851 h 6.531 z"
             fill="#000000" />
          <path
             id="letter-n"
             d="m 263.829,82.5946 h -6.531 L 244.46,60.748 v 21.8466 h -6.982 V 47.6851 h 6.532 l 12.837,21.8466 V 47.6851 h 6.532 v 34.9095 z"
             fill="#000000" />
          <path
             id="letter-k"
             d="m 289.054,65.885 v 16.4844 h -6.531 V 47.4598 h 6.531 V 64.07 l 12.162,-16.6102 h 7.883 L 296.538,65.024 310,82.3694 h -7.658 z"
             fill="#000000" />
        </g>
      </g>
    </g>
  </g>
</svg>
